<svg xmlns="http://www.w3.org/2000/svg" id="Layer_1" viewBox="0 0 481.25 510.76"><defs><style>      .cls-1 {        fill: #fff;      }    </style></defs><path class="cls-1" d="M217.11,164.21c-12.92-.41-24.29,1.82-34.79,5.82-13.55,5.16-25.23,13.4-34.34,23.76-.23.26-.47.54-.7.81-13.12,15.49-21.2,36.87-21.54,55.42-.75,41.48,22.17,89.8,79.29,105.58,13.21,3.65,38.3,7.55,65.45-1.36,12.86-4.22,29.61-13.13,41.79-24.35,6.23-5.75,13.17-14.03,17.92-21.33,20.94-32.14,19.3-69.32,19.3-69.32l-.3-56.41v-38.67l-.12-.11-.29-9.16c0-19.99-1.39-97.21-4.15-103.76-1.85-4.99-6.22-9.23-13.15-12.69-9.23-4.99-18.92-7.5-29.06-7.5h-15.23V0h184.09v10.96h-15.92c-17.54,0-30.23,4.81-38.07,14.42-5.08,6.54-7.61,85.69-7.61,109.52l.75,77.78c0,29.99-3.93,58.13-11.77,76.5-36.49,85.45-129.87,126.23-214.67,96.88-41.8-14.47-63.51-38.31-76.03-51.97-.36-.39-.65-.85-.98-1.27-31.82-40.13-34.54-73.55-35.06-86.88-.65-16.36,3.78-46.54,22.21-71.04.53-.71,1.78-2.15,2.34-2.86,8.69-11.02,19.34-20.47,33.51-28.57,11.69-6.69,25.78-12.08,42.99-13.9,29.2-3.09,52.63,4.78,70.32,15.13,18.83,11.02,30.81,26.02,39.35,38.96,11.33,17.18,14.45,37.73,14.45,37.73,0,0-7.89-23.18-29.12-38.96-12.32-9.16-26.37-16.7-49.26-18.18-.42-.03-1.16-.03-1.58-.04Z"></path><g><path class="cls-1" d="M463.26,499.8c-11.54,0-22.62-2.31-33.22-6.92-7.39-3.84-12.46-8.07-15.23-12.68-3.23-6.54-4.84-61.75-4.84-82.13v-91.99c-15.54,31.99-39.9,58.88-69.9,77.58v14.42c0,23.84-3,80.79-9,87.32-9.23,9.62-23.99,14.42-44.29,14.42h-17.3v10.96h211.77v-10.96h-17.99Z"></path><path class="cls-1" d="M70.59,304.08v74.4c0,23.84-3,64.96-9,71.49-9.23,9.62-23.99,14.42-44.29,14.42H0v10.96h211.77v-10.96h-17.99c-11.54,0-22.61-2.31-33.22-6.92-7.39-3.84-12.46-8.07-15.23-12.68-1.94-3.92-3.28-52.32-4.05-61.23-30.55-19.08-55.22-46.67-70.69-79.48Z"></path></g><path class="cls-1" d="M140.49,120.53v-15.84c0-19.61,1.49-32.67,4.5-39.22,3-6.53,8.19-11.34,15.58-14.42,10.6-4.61,21.68-6.92,33.22-6.92h17.99v-10.96H0v10.96h17.3c11.53,0,22.6,2.51,33.22,7.5,7.84,3.46,12.91,7.7,15.23,12.69,3.22,6.54,4.84,20,4.84,40.37v77.09c14.86-28.14,39.75-50.07,69.9-61.26Z"></path></svg>