<?xml version="1.0" encoding="UTF-8"?>
<svg id="Layer_1" data-name="Layer 1" xmlns="http://www.w3.org/2000/svg" viewBox="0 0 289.88 66.03">
  <defs>
    <style>
      .cls-1 {
        fill: #fff;
      }
    </style>
  </defs>
  <g>
    <path class="cls-1" d="M26.72,20.79c-1.49-.05-2.81.21-4.02.67-1.57.6-2.92,1.55-3.97,2.75-.03.03-.05.06-.08.09-1.52,1.79-2.45,4.26-2.49,6.41-.09,4.8,2.56,10.39,9.17,12.21,1.53.42,4.43.87,7.57-.16,1.49-.49,3.42-1.52,4.83-2.82.72-.66,1.52-1.62,2.07-2.47,2.42-3.72,2.23-8.02,2.23-8.02l-.03-6.52v-4.47h-.01s-.03-1.07-.03-1.07c0-2.31-.16-11.24-.48-12-.21-.58-.72-1.07-1.52-1.47-1.07-.58-2.19-.87-3.36-.87h-1.76v-1.27h21.29v1.27h-1.84c-2.03,0-3.5.56-4.4,1.67-.59.76-.88,9.91-.88,12.67l.09,9c0,3.47-.45,6.72-1.36,8.85-4.22,9.88-15.02,14.6-24.83,11.21-4.84-1.67-7.35-4.43-8.79-6.01-.04-.05-.07-.1-.11-.15-3.68-4.64-3.99-8.51-4.06-10.05-.08-1.89.44-5.38,2.57-8.22.06-.08.21-.25.27-.33,1.01-1.27,2.24-2.37,3.88-3.3,1.35-.77,2.98-1.4,4.97-1.61,3.38-.36,6.09.55,8.13,1.75,2.18,1.27,3.56,3.01,4.55,4.51,1.31,1.99,1.67,4.36,1.67,4.36,0,0-.91-2.68-3.37-4.51-1.43-1.06-3.05-1.93-5.7-2.1-.05,0-.13,0-.18,0Z"/>
    <g>
      <path class="cls-1" d="M55.19,59.6c-1.33,0-2.62-.27-3.84-.8-.85-.44-1.44-.93-1.76-1.47-.37-.76-.56-7.14-.56-9.5v-10.64c-1.8,3.7-4.61,6.81-8.08,8.97v1.67c0,2.76-.35,9.34-1.04,10.1-1.07,1.11-2.78,1.67-5.12,1.67h-2v1.27h24.49v-1.27h-2.08Z"/>
      <path class="cls-1" d="M9.77,36.96v8.61c0,2.76-.35,7.51-1.04,8.27-1.07,1.11-2.78,1.67-5.12,1.67H1.6v1.27h24.49v-1.27h-2.08c-1.33,0-2.62-.27-3.84-.8-.85-.44-1.44-.93-1.76-1.47-.22-.45-.38-6.05-.47-7.08-3.53-2.21-6.39-5.4-8.18-9.19Z"/>
    </g>
    <path class="cls-1" d="M17.85,15.73v-1.83c0-2.27.17-3.78.52-4.54.35-.76.95-1.31,1.8-1.67,1.23-.53,2.51-.8,3.84-.8h2.08v-1.27H1.6v1.27h2c1.33,0,2.61.29,3.84.87.91.4,1.49.89,1.76,1.47.37.76.56,2.31.56,4.67v8.92c1.72-3.26,4.6-5.79,8.08-7.09Z"/>
  </g>
  <g>
    <g>
      <path class="cls-1" d="M120.38,55c-.05.26-.1.55-.14.85-.71.14-1.36.22-1.96.22-.53,0-1.04-.08-1.53-.24-.49-.16-.92-.41-1.28-.75-.36-.34-.63-.73-.79-1.19-.17-.46-.25-.94-.25-1.46,0-.56.09-1.09.28-1.61s.46-.95.84-1.31.83-.63,1.35-.81c.53-.18,1.08-.27,1.66-.27.62,0,1.24.07,1.86.2,0,.18.02.46.06.84-.4-.12-.74-.21-1.02-.25-.28-.04-.55-.06-.8-.06-.43,0-.84.07-1.24.2-.39.13-.74.34-1.05.63-.3.29-.54.64-.7,1.06-.16.42-.24.86-.24,1.31,0,.42.06.82.19,1.2.13.38.32.7.59.96.26.26.58.46.95.6.36.14.77.21,1.23.21.57,0,1.24-.11,1.98-.34Z"/>
      <path class="cls-1" d="M121.62,55.94l.11-1.46.12-2.69.05-2.26c0-.46.01-.79.01-.98.43,0,.79.01,1.08.01.25,0,.52,0,.82-.01.3,0,.54-.01.73-.01.34,0,.64.02.92.07s.52.15.74.32.38.36.48.59c.1.22.15.47.15.76s-.04.52-.12.75-.2.44-.36.63c-.16.19-.34.34-.56.46-.17.09-.37.16-.62.22-.17.04-.39.07-.68.1l.95,1.52.99,1.51c.07.1.17.26.3.47-.28,0-.47-.01-.56-.01-.1,0-.29,0-.58.01l-.39-.74c-.08-.14-.16-.29-.24-.43s-.17-.29-.26-.46l-1.23-2c-.05-.08-.13-.22-.25-.42.28.05.52.08.74.08.36,0,.69-.06.98-.18.29-.12.52-.3.68-.56.16-.25.24-.53.24-.84,0-.17-.03-.32-.08-.46s-.13-.26-.24-.36c-.11-.1-.22-.17-.32-.21-.11-.04-.24-.08-.41-.1-.17-.02-.35-.03-.53-.03h-.77c-.33.01-.54,0-.63,0-.11,2.43-.18,4.66-.2,6.7h-.53c-.08-.01-.25,0-.53,0Z"/>
      <path class="cls-1" d="M127.9,55.94l.14-2.04.15-3.81.02-.83c0-.21,0-.45,0-.72.82,0,1.65,0,2.51,0h1.73s.55,0,.55,0c-.03.25-.04.5-.05.76l-.48-.03c-.12,0-.32-.01-.62-.02s-.58,0-.86,0c-.85,0-1.45,0-1.78.02l-.1,2.54c.56.01,1.05.02,1.5.02.48,0,1.11,0,1.89-.02-.02.25-.04.5-.05.75l-1.86-.02c-.37,0-.87,0-1.52.02l-.1,2.68h.56c1.02,0,1.7,0,2.04,0s.73-.02,1.17-.05c-.02.27-.04.52-.05.76-.87,0-1.61-.01-2.2-.01h-2.58Z"/>
      <path class="cls-1" d="M139.92,55c-.05.26-.1.55-.14.85-.71.14-1.36.22-1.96.22-.53,0-1.04-.08-1.53-.24-.49-.16-.92-.41-1.28-.75-.36-.34-.63-.73-.79-1.19-.17-.46-.25-.94-.25-1.46,0-.56.09-1.09.28-1.61s.46-.95.84-1.31.83-.63,1.35-.81c.53-.18,1.08-.27,1.66-.27.62,0,1.24.07,1.86.2,0,.18.02.46.06.84-.4-.12-.74-.21-1.02-.25-.28-.04-.55-.06-.8-.06-.43,0-.84.07-1.24.2-.39.13-.74.34-1.05.63-.3.29-.54.64-.7,1.06-.16.42-.24.86-.24,1.31,0,.42.06.82.19,1.2.13.38.32.7.59.96.26.26.58.46.95.6.36.14.77.21,1.23.21.57,0,1.24-.11,1.98-.34Z"/>
      <path class="cls-1" d="M141.16,55.94l.08-1.25.11-2.6.08-2.56c0-.15,0-.3,0-.44v-.55s.55,0,.55,0h.53c-.07.9-.11,1.84-.15,2.82-.06,1.57-.1,3.1-.12,4.57h-.51c-.07-.01-.26,0-.58,0Z"/>
      <path class="cls-1" d="M143.92,55.94l.14-2.04.15-3.81.02-.83c0-.21,0-.45,0-.72.82,0,1.65,0,2.51,0h1.73s.55,0,.55,0c-.03.25-.04.5-.05.76l-.48-.03c-.12,0-.32-.01-.62-.02s-.58,0-.86,0c-.85,0-1.45,0-1.78.02l-.1,2.54c.56.01,1.05.02,1.5.02.48,0,1.11,0,1.89-.02-.02.25-.04.5-.05.75l-1.86-.02c-.37,0-.87,0-1.52.02l-.1,2.68h.56c1.02,0,1.7,0,2.04,0s.73-.02,1.17-.05c-.02.27-.04.52-.05.76-.87,0-1.61-.01-2.2-.01h-2.58Z"/>
      <path class="cls-1" d="M150.19,55.94l.11-1.51.19-4.4.02-.86c0-.27,0-.48,0-.63.27,0,.5,0,.68,0,.15,0,.36,0,.62,0l.59.95,3.58,5.4.23-6.36h.48s.48,0,.48,0l-.12,1.9-.15,3.34-.07,2.16c-.21,0-.42-.01-.63-.01-.19,0-.41,0-.65.01l-.5-.8-3.67-5.5c-.01.2-.03.52-.04.95l-.15,3.83-.03,1.51c-.23,0-.39-.01-.47-.01-.06,0-.22,0-.5.01Z"/>
      <path class="cls-1" d="M158.57,55.94l.15-2.23.16-4.38c0-.18,0-.44,0-.78.45,0,.84.01,1.16.01.2,0,.51,0,.94-.01.42,0,.72-.01.9-.01.6,0,1.11.05,1.52.14.31.07.59.19.85.36.26.17.49.4.69.68s.35.59.45.92c.11.4.17.83.17,1.27,0,.6-.11,1.18-.32,1.74-.21.56-.53,1.02-.95,1.39-.42.37-.89.61-1.41.73s-1.1.18-1.75.18h-1.51c-.1-.01-.45,0-1.06,0ZM159.62,55.22c.44.01.85.02,1.23.02.32,0,.64-.02.97-.05.33-.03.63-.09.89-.17.26-.08.52-.23.77-.45.25-.22.46-.46.62-.73.16-.27.28-.58.36-.92.08-.34.12-.68.12-1.03,0-.39-.05-.75-.15-1.08-.1-.33-.27-.63-.52-.9-.24-.27-.53-.44-.87-.53-.33-.09-.78-.13-1.33-.13-.68,0-1.29,0-1.85.02l-.24,5.95Z"/>
      <path class="cls-1" d="M170.7,48.43c.53,0,1.04.08,1.52.23.48.16.9.41,1.27.77.37.36.63.76.78,1.2.16.44.23.93.23,1.45,0,.56-.09,1.09-.26,1.6s-.44.95-.8,1.31c-.36.36-.81.63-1.33.8-.53.18-1.08.27-1.66.27s-1.08-.08-1.59-.24-.94-.41-1.3-.75-.62-.73-.77-1.19c-.16-.46-.24-.94-.24-1.45,0-.56.1-1.1.29-1.62.19-.52.47-.96.85-1.31s.83-.62,1.36-.8c.53-.17,1.08-.26,1.66-.26ZM170.64,49.16c-.43,0-.84.07-1.23.21-.39.14-.72.36-1.01.67s-.5.67-.64,1.08-.21.85-.21,1.3c0,.42.07.82.21,1.2.14.38.34.7.61.96.27.26.59.45.96.57.38.12.77.19,1.18.19s.82-.07,1.2-.2c.38-.13.71-.35.99-.64.28-.29.48-.64.61-1.05s.2-.84.2-1.29c0-.43-.06-.83-.18-1.22-.12-.39-.31-.72-.58-.99s-.58-.47-.95-.6c-.37-.13-.75-.19-1.16-.19Z"/>
      <path class="cls-1" d="M177.57,55.88c-.01-.29-.04-.57-.07-.84.38.12.67.19.87.23.2.04.4.05.6.05.19,0,.37-.02.54-.07.15-.04.28-.1.4-.17.09-.06.17-.12.23-.2.08-.1.15-.21.21-.35.06-.14.1-.3.12-.48.03-.26.07-.78.1-1.57l.06-1.93.04-2.02h.52s.54,0,.54,0c-.08,1.13-.13,2.12-.17,2.98l-.08,2.06c-.02.51-.06.9-.12,1.17-.07.27-.19.5-.38.69s-.43.34-.74.46c-.31.11-.66.17-1.05.17-.47,0-1.01-.06-1.62-.18Z"/>
      <path class="cls-1" d="M183.38,48.55h.54s.53,0,.53,0l-.24,4.13-.02.5v.1c0,.5.07.89.22,1.17.15.28.38.49.71.64.32.15.73.23,1.23.23.33,0,.64-.04.92-.13.23-.08.43-.18.6-.3.16-.13.3-.28.41-.47.1-.18.17-.38.22-.6.05-.28.1-.77.14-1.47l.1-1.74c.03-.64.05-1.33.06-2.06h.56s.5,0,.5,0l-.16,2.55-.1,2.11c-.03.49-.08.87-.16,1.14-.05.19-.13.37-.24.54-.09.15-.21.29-.35.41-.16.14-.36.27-.59.38-.25.12-.51.2-.78.26-.39.08-.8.11-1.22.11s-.8-.04-1.15-.12c-.31-.07-.6-.18-.86-.33-.26-.15-.47-.32-.62-.5-.13-.15-.23-.34-.31-.57-.09-.26-.13-.55-.13-.86,0-.34.01-.72.04-1.15.03-.43.06-1.09.1-1.96s.06-1.54.06-2Z"/>
      <path class="cls-1" d="M191.17,55.94l.11-1.51.19-4.4.02-.86c0-.27,0-.48,0-.63.27,0,.5,0,.68,0,.15,0,.36,0,.62,0l.59.95,3.58,5.4.23-6.36h.48s.48,0,.48,0l-.12,1.9-.15,3.34-.07,2.16c-.21,0-.42-.01-.63-.01-.19,0-.41,0-.65.01l-.5-.8-3.67-5.5c-.01.2-.03.52-.04.95l-.15,3.83-.03,1.51c-.23,0-.39-.01-.47-.01-.06,0-.22,0-.5.01Z"/>
      <path class="cls-1" d="M201.06,55.94l.11-1.66.15-3.44.05-1.59c-.88,0-1.66.02-2.32.05.02-.29.03-.54.04-.76.92,0,1.91,0,2.97,0h1.73s.92,0,.92,0c-.02.32-.04.57-.04.76-.56-.03-1.18-.05-1.86-.05h-.44l-.11,2.4-.11,3.38v.9h-.52s-.23,0-.55,0Z"/>
      <path class="cls-1" d="M209.28,48.43c.53,0,1.04.08,1.52.23.48.16.9.41,1.27.77.37.36.63.76.78,1.2.16.44.23.93.23,1.45,0,.56-.09,1.09-.26,1.6s-.44.95-.8,1.31c-.36.36-.81.63-1.33.8-.53.18-1.08.27-1.66.27s-1.08-.08-1.59-.24-.94-.41-1.3-.75-.62-.73-.77-1.19c-.16-.46-.24-.94-.24-1.45,0-.56.1-1.1.29-1.62.19-.52.47-.96.85-1.31s.83-.62,1.36-.8c.53-.17,1.08-.26,1.66-.26ZM209.22,49.16c-.43,0-.84.07-1.23.21-.39.14-.72.36-1.01.67s-.5.67-.64,1.08-.21.85-.21,1.3c0,.42.07.82.21,1.2.14.38.34.7.61.96.27.26.59.45.96.57.38.12.77.19,1.18.19s.82-.07,1.2-.2c.38-.13.71-.35.99-.64.28-.29.48-.64.61-1.05s.2-.84.2-1.29c0-.43-.06-.83-.18-1.22-.12-.39-.31-.72-.58-.99s-.58-.47-.95-.6c-.37-.13-.75-.19-1.16-.19Z"/>
      <path class="cls-1" d="M216.06,55.94l.99-1.86,2.51-4.91.29-.62h.63c.2,0,.41,0,.63,0l.94,2.65,1.73,4.74h-.52c-.1-.01-.29,0-.58,0-.1-.35-.26-.85-.48-1.51-.23-.66-.42-1.19-.57-1.6h-2.96l-.79,1.62-.69,1.48h-.56c-.09-.01-.29,0-.58,0ZM219,52.12h2.44l-1.01-2.87-1.43,2.87Z"/>
      <path class="cls-1" d="M229.05,55.94l.11-1.66.15-3.44.05-1.59c-.88,0-1.66.02-2.32.05.02-.29.03-.54.04-.76.92,0,1.91,0,2.97,0h1.73s.92,0,.92,0c-.02.32-.04.57-.04.76-.56-.03-1.18-.05-1.86-.05h-.44l-.11,2.4-.11,3.38v.9h-.52s-.23,0-.55,0Z"/>
      <path class="cls-1" d="M233.33,55.94l.08-1.25.11-2.6.08-2.56c0-.15,0-.3,0-.44v-.55s.55,0,.55,0h.53c-.07.9-.11,1.84-.15,2.82-.06,1.57-.1,3.1-.12,4.57h-.51c-.07-.01-.26,0-.58,0Z"/>
    </g>
    <g>
      <g>
        <path class="cls-1" d="M87.22,27.29v-11.56h2.31v25.43h-2.31v-11.56h-16.18v11.56h-2.31V15.74h2.31v11.56h16.18Z"/>
        <path class="cls-1" d="M111.11,35.34v-14.21h2.31v20.03h-2.31v-2c-1.93,1.85-4.24,2.77-6.93,2.77s-5.14-.98-7.09-2.93c-1.95-1.95-2.93-4.31-2.93-7.09v-10.79h2.31v10.79c0,2.14.75,3.96,2.25,5.45,1.5,1.5,3.32,2.25,5.45,2.25s3.96-.75,5.46-2.25c.62-.62,1.11-1.3,1.48-2.03Z"/>
        <path class="cls-1" d="M134.99,41.16h-2.31v-12.33c0-1.71-.6-3.16-1.8-4.36-1.2-1.2-2.66-1.8-4.36-1.8s-3.15.6-4.35,1.79c-.43.43-.78.88-1.05,1.36v15.35h-2.31v-20.03h2.31v1.17c1.52-1.29,3.32-1.94,5.39-1.94,2.34,0,4.35.82,6.01,2.47.35.37.66.74.92,1.11.29-.39.61-.76.96-1.11,1.64-1.64,3.64-2.47,5.98-2.47s4.34.83,5.99,2.48c1.65,1.65,2.48,3.65,2.48,5.99v12.33h-2.31v-12.33c0-1.71-.6-3.16-1.8-4.36s-2.66-1.8-4.36-1.8-3.15.6-4.35,1.79c-.43.43-.78.88-1.05,1.36v15.35Z"/>
        <path class="cls-1" d="M170.43,21.1h2.31v20.06h-2.31v-2.47c-2.16,2.16-4.73,3.24-7.71,3.24s-5.52-1.05-7.63-3.16c-2.11-2.11-3.16-4.65-3.16-7.63s1.05-5.52,3.16-7.63c2.11-2.11,4.65-3.16,7.63-3.16s5.55,1.08,7.71,3.24v-2.5ZM170.43,27.54c-.41-.86-.98-1.66-1.7-2.4-1.66-1.64-3.67-2.47-6.01-2.47s-4.34.83-5.99,2.48c-1.65,1.65-2.48,3.65-2.48,5.99s.83,4.34,2.48,6c1.65,1.65,3.65,2.48,5.99,2.48s4.35-.83,6.01-2.5c.72-.72,1.28-1.51,1.7-2.37v-7.21Z"/>
        <path class="cls-1" d="M180.45,26.95v14.21h-2.31v-20.03h2.31v2c1.93-1.85,4.24-2.77,6.93-2.77s5.14.98,7.09,2.93c1.95,1.95,2.93,4.32,2.93,7.09v10.79h-2.31v-10.79c0-2.14-.75-3.96-2.25-5.46s-3.32-2.25-5.46-2.25-3.96.75-5.45,2.25c-.62.62-1.11,1.29-1.48,2.03Z"/>
      </g>
      <g>
        <path class="cls-1" d="M236.22,31.92c0,2.55-.89,4.73-2.68,6.53-1.83,1.81-4.26,2.71-7.3,2.71v-3.85c2.01,0,3.54-.52,4.58-1.57,1.04-1.05,1.56-2.32,1.56-3.82V15.74h3.85v16.18Z"/>
        <path class="cls-1" d="M261.03,31.14c0,2.98-1.05,5.52-3.16,7.63-2.11,2.11-4.65,3.16-7.63,3.16s-5.52-1.05-7.63-3.16-3.16-4.65-3.16-7.63,1.05-5.52,3.16-7.63c2.11-2.11,4.65-3.16,7.63-3.16s5.52,1.05,7.63,3.16c2.11,2.11,3.16,4.65,3.16,7.63ZM250.24,24.21c-1.91,0-3.54.68-4.9,2.03s-2.03,2.99-2.03,4.9.68,3.54,2.03,4.9,2.99,2.03,4.9,2.03,3.54-.68,4.9-2.03,2.03-2.99,2.03-4.9-.68-3.54-2.03-4.9-2.99-2.03-4.9-2.03Z"/>
        <path class="cls-1" d="M268.27,41.16h-3.85V15.74h3.85v6.53c1.79-1.27,3.84-1.91,6.16-1.91,2.98,0,5.52,1.05,7.63,3.16,2.11,2.11,3.16,4.65,3.16,7.63s-1.05,5.52-3.16,7.63c-2.11,2.11-4.65,3.16-7.63,3.16-2.32,0-4.38-.64-6.16-1.91v1.14ZM269.54,36.05c1.36,1.36,2.99,2.03,4.9,2.03s3.54-.68,4.9-2.03,2.03-2.99,2.03-4.9-.68-3.54-2.03-4.9-2.99-2.03-4.9-2.03-3.54.68-4.9,2.03c-.51.51-.94,1.08-1.26,1.7v6.41c.33.62.75,1.18,1.26,1.69Z"/>
      </g>
      <path class="cls-1" d="M216.54,34.41v-5.49h4.92v1.48h-3.44v4.17c0,.62-.06,1.13-.18,1.53l2.44,3.15h-1.85l-1.2-1.53c-.08.2-.41.6-1,1.2-1.21,1.19-2.66,1.79-4.37,1.79s-3.14-.6-4.34-1.8c-1.2-1.2-1.8-2.66-1.8-4.38.01-1.68.71-3.11,2.08-4.29.83-.72,1.61-1.29,2.34-1.71l-1.61-2.06c-.71-1.02-1-2.12-.88-3.28.17-1.23.74-2.22,1.7-2.96.96-.74,2.05-1.03,3.25-.88,1.23.17,2.22.74,2.96,1.7s1.03,2.05.88,3.25c-.17,1.22-.73,2.2-1.69,2.93-.9.71-1.7,1.29-2.4,1.73l4.19,5.45ZM207.2,34.59c0,1.29.46,2.38,1.37,3.29s2.01,1.37,3.29,1.37,2.4-.46,3.3-1.38c.52-.52.87-1.02,1.04-1.48l-5.15-6.69c-.76.45-1.52.99-2.28,1.63-1.05.92-1.57,2-1.57,3.24ZM209.72,25.56l1.73,2.22c.73-.44,1.54-1.02,2.42-1.73.64-.49,1.01-1.13,1.1-1.93.12-.83-.08-1.56-.58-2.19-.5-.64-1.16-1.01-1.96-1.11-.81-.12-1.54.07-2.18.56s-1.02,1.15-1.12,1.98c-.08.77.12,1.51.59,2.2Z"/>
    </g>
  </g>
</svg>